<?xml version="1.0" encoding="UTF-8" standalone="no"?>
<!DOCTYPE svg PUBLIC "-//W3C//DTD SVG 1.1//EN"
 "http://www.w3.org/Graphics/SVG/1.1/DTD/svg11.dtd">
<!-- Generated by graphviz version 8.1.0 (20230707.0739)
 -->
<!-- Title: ConceptualModel Pages: 1 -->
<svg width="408pt" height="633pt"
 viewBox="0.00 0.00 408.33 633.19" xmlns="http://www.w3.org/2000/svg" xmlns:xlink="http://www.w3.org/1999/xlink">
<g id="graph0" class="graph" transform="scale(1 1) rotate(0) translate(4 629.19)">
<title>ConceptualModel</title>
<polygon fill="white" stroke="none" points="-4,4 -4,-629.19 404.33,-629.19 404.33,4 -4,4"/>
<!-- STUDENTS -->
<g id="node1" class="node">
<title>STUDENTS</title>
<polygon fill="none" stroke="black" points="152.61,-554.05 64.61,-554.05 64.61,-518.05 152.61,-518.05 152.61,-554.05"/>
<text text-anchor="middle" x="108.61" y="-530.63" font-family="Times New Roman,serif" font-size="14.00">STUDENTS</text>
</g>
<!-- STUDENTS_SID -->
<g id="node2" class="node">
<title>STUDENTS_SID</title>
<ellipse fill="none" stroke="black" cx="25.1" cy="-531.13" rx="25.1" ry="13.61"/>
<text text-anchor="start" x="15.35" y="-528.26" font-family="Times New Roman,serif" font-size="10.00"> </text>
<text text-anchor="start" x="17.6" y="-528.26" font-family="Times New Roman,serif" text-decoration="underline" font-size="10.00">SID</text>
<text text-anchor="start" x="32.6" y="-528.26" font-family="Times New Roman,serif" font-size="10.00"> </text>
</g>
<!-- STUDENTS&#45;&#45;STUDENTS_SID -->
<g id="edge1" class="edge">
<title>STUDENTS&#45;&#45;STUDENTS_SID</title>
<path fill="none" stroke="black" d="M64.41,-533.45C59.56,-533.16 54.75,-532.88 50.25,-532.61"/>
</g>
<!-- STUDENTS_Name -->
<g id="node3" class="node">
<title>STUDENTS_Name</title>
<ellipse fill="none" stroke="black" cx="148.95" cy="-611.58" rx="30.41" ry="13.61"/>
<text text-anchor="start" x="135.45" y="-607.7" font-family="Times New Roman,serif" font-size="10.00"> Name </text>
</g>
<!-- STUDENTS&#45;&#45;STUDENTS_Name -->
<g id="edge2" class="edge">
<title>STUDENTS&#45;&#45;STUDENTS_Name</title>
<path fill="none" stroke="black" d="M118.37,-554.33C125.55,-567.78 135.16,-585.76 141.67,-597.96"/>
</g>
<!-- STUDENTS_Semester -->
<g id="node4" class="node">
<title>STUDENTS_Semester</title>
<ellipse fill="none" stroke="black" cx="66.79" cy="-602.22" rx="39.95" ry="13.61"/>
<text text-anchor="start" x="46.54" y="-598.35" font-family="Times New Roman,serif" font-size="10.00"> Semester </text>
</g>
<!-- STUDENTS&#45;&#45;STUDENTS_Semester -->
<g id="edge3" class="edge">
<title>STUDENTS&#45;&#45;STUDENTS_Semester</title>
<path fill="none" stroke="black" d="M96.96,-554.48C90.09,-565.34 81.56,-578.84 75.32,-588.71"/>
</g>
<!-- COURSES -->
<g id="node5" class="node">
<title>COURSES</title>
<polygon fill="none" stroke="black" points="263.25,-423.42 182.75,-423.42 182.75,-387.42 263.25,-387.42 263.25,-423.42"/>
<text text-anchor="middle" x="223" y="-399.99" font-family="Times New Roman,serif" font-size="14.00">COURSES</text>
</g>
<!-- COURSES_CID -->
<g id="node6" class="node">
<title>COURSES_CID</title>
<ellipse fill="none" stroke="black" cx="236.3" cy="-472.72" rx="25.63" ry="13.61"/>
<text text-anchor="start" x="226.17" y="-469.85" font-family="Times New Roman,serif" font-size="10.00"> </text>
<text text-anchor="start" x="228.42" y="-469.85" font-family="Times New Roman,serif" text-decoration="underline" font-size="10.00">CID</text>
<text text-anchor="start" x="244.17" y="-469.85" font-family="Times New Roman,serif" font-size="10.00"> </text>
</g>
<!-- COURSES&#45;&#45;COURSES_CID -->
<g id="edge4" class="edge">
<title>COURSES&#45;&#45;COURSES_CID</title>
<path fill="none" stroke="black" d="M226.63,-423.81C228.82,-434.86 231.55,-448.7 233.55,-458.84"/>
</g>
<!-- COURSES_Title -->
<g id="node7" class="node">
<title>COURSES_Title</title>
<ellipse fill="none" stroke="black" cx="314.79" cy="-410.1" rx="27.22" ry="13.61"/>
<text text-anchor="start" x="303.54" y="-406.23" font-family="Times New Roman,serif" font-size="10.00"> Title </text>
</g>
<!-- COURSES&#45;&#45;COURSES_Title -->
<g id="edge5" class="edge">
<title>COURSES&#45;&#45;COURSES_Title</title>
<path fill="none" stroke="black" d="M263.53,-407.49C271.6,-407.9 279.89,-408.32 287.39,-408.71"/>
</g>
<!-- COURSES_ECTS -->
<g id="node8" class="node">
<title>COURSES_ECTS</title>
<ellipse fill="none" stroke="black" cx="286.66" cy="-366.35" rx="30.41" ry="13.61"/>
<text text-anchor="start" x="273.16" y="-362.47" font-family="Times New Roman,serif" font-size="10.00"> ECTS </text>
</g>
<!-- COURSES&#45;&#45;COURSES_ECTS -->
<g id="edge6" class="edge">
<title>COURSES&#45;&#45;COURSES_ECTS</title>
<path fill="none" stroke="black" d="M252.97,-387.03C258.26,-383.78 263.61,-380.49 268.45,-377.52"/>
</g>
<!-- PROFESSORS -->
<g id="node9" class="node">
<title>PROFESSORS</title>
<polygon fill="none" stroke="black" points="226.76,-259.05 120.76,-259.05 120.76,-223.05 226.76,-223.05 226.76,-259.05"/>
<text text-anchor="middle" x="173.76" y="-235.63" font-family="Times New Roman,serif" font-size="14.00">PROFESSORS</text>
</g>
<!-- PROFESSORS_Position -->
<g id="node10" class="node">
<title>PROFESSORS_Position</title>
<ellipse fill="none" stroke="black" cx="91.6" cy="-247.98" rx="37.83" ry="13.61"/>
<text text-anchor="start" x="72.85" y="-244.11" font-family="Times New Roman,serif" font-size="10.00"> Position </text>
</g>
<!-- PROFESSORS&#45;&#45;PROFESSORS_Position -->
<g id="edge7" class="edge">
<title>PROFESSORS&#45;&#45;PROFESSORS_Position</title>
<path fill="none" stroke="black" d="M120.34,-245.56C120.21,-245.57 120.09,-245.58 119.97,-245.59"/>
</g>
<!-- ASSISTANTS -->
<g id="node11" class="node">
<title>ASSISTANTS</title>
<polygon fill="none" stroke="black" points="298.49,-149 197.74,-149 197.74,-113 298.49,-113 298.49,-149"/>
<text text-anchor="middle" x="248.12" y="-125.58" font-family="Times New Roman,serif" font-size="14.00">ASSISTANTS</text>
</g>
<!-- UNIVERSITY EMPLOYEES -->
<g id="node12" class="node">
<title>UNIVERSITY EMPLOYEES</title>
<polygon fill="none" stroke="black" points="216.07,-102.1 31.32,-102.1 31.32,-66.1 216.07,-66.1 216.07,-102.1"/>
<text text-anchor="middle" x="123.69" y="-78.67" font-family="Times New Roman,serif" font-size="14.00">UNIVERSITY EMPLOYEES</text>
</g>
<!-- UNIVERSITY EMPLOYEES_EID -->
<g id="node13" class="node">
<title>UNIVERSITY EMPLOYEES_EID</title>
<ellipse fill="none" stroke="black" cx="91.4" cy="-13.61" rx="25.1" ry="13.61"/>
<text text-anchor="start" x="81.65" y="-10.74" font-family="Times New Roman,serif" font-size="10.00"> </text>
<text text-anchor="start" x="83.9" y="-10.74" font-family="Times New Roman,serif" text-decoration="underline" font-size="10.00">EID</text>
<text text-anchor="start" x="98.9" y="-10.74" font-family="Times New Roman,serif" font-size="10.00"> </text>
</g>
<!-- UNIVERSITY EMPLOYEES&#45;&#45;UNIVERSITY EMPLOYEES_EID -->
<g id="edge8" class="edge">
<title>UNIVERSITY EMPLOYEES&#45;&#45;UNIVERSITY EMPLOYEES_EID</title>
<path fill="none" stroke="black" d="M115.38,-65.95C109.85,-53.87 102.7,-38.27 97.65,-27.25"/>
</g>
<!-- UNIVERSITY EMPLOYEES_Name -->
<g id="node14" class="node">
<title>UNIVERSITY EMPLOYEES_Name</title>
<ellipse fill="none" stroke="black" cx="39.67" cy="-77.5" rx="30.41" ry="13.61"/>
<text text-anchor="start" x="26.17" y="-73.62" font-family="Times New Roman,serif" font-size="10.00"> Name </text>
</g>
<!-- UNIVERSITY EMPLOYEES&#45;&#45;UNIVERSITY EMPLOYEES_Name -->
<g id="edge9" class="edge">
<title>UNIVERSITY EMPLOYEES&#45;&#45;UNIVERSITY EMPLOYEES_Name</title>
<path fill="none" stroke="black" d="M39.73,-77.5C39.71,-77.5 39.7,-77.5 39.69,-77.5"/>
</g>
<!-- UNIVERSITY EMPLOYEES_Room Number -->
<g id="node15" class="node">
<title>UNIVERSITY EMPLOYEES_Room Number</title>
<ellipse fill="none" stroke="black" cx="175.81" cy="-16.27" rx="54.8" ry="13.61"/>
<text text-anchor="start" x="145.06" y="-12.4" font-family="Times New Roman,serif" font-size="10.00"> Room Number </text>
</g>
<!-- UNIVERSITY EMPLOYEES&#45;&#45;UNIVERSITY EMPLOYEES_Room Number -->
<g id="edge10" class="edge">
<title>UNIVERSITY EMPLOYEES&#45;&#45;UNIVERSITY EMPLOYEES_Room Number</title>
<path fill="none" stroke="black" d="M137.66,-65.92C146.35,-54.62 157.33,-40.32 165.28,-29.98"/>
</g>
<!-- ATTEND -->
<g id="node16" class="node">
<title>ATTEND</title>
<polygon fill="lightgrey" stroke="black" points="152.98,-481.32 85.71,-463.32 152.98,-445.32 220.26,-463.32 152.98,-481.32"/>
<text text-anchor="middle" x="152.98" y="-457.89" font-family="Times New Roman,serif" font-size="14.00">ATTEND</text>
</g>
<!-- ATTEND&#45;&#45;STUDENTS -->
<g id="edge11" class="edge">
<title>ATTEND&#45;&#45;STUDENTS</title>
<path fill="none" stroke="black" d="M143.35,-479.1C136.42,-490.46 127.05,-505.83 119.78,-517.73"/>
<text text-anchor="middle" x="119.19" y="-500.87" font-family="Times New Roman,serif" font-size="14.00">N:M</text>
</g>
<!-- ATTEND&#45;&#45;COURSES -->
<g id="edge12" class="edge">
<title>ATTEND&#45;&#45;COURSES</title>
<path fill="none" stroke="black" d="M169.58,-449.6C178.88,-441.9 190.6,-432.21 200.7,-423.86"/>
<text text-anchor="middle" x="172.76" y="-423.43" font-family="Times New Roman,serif" font-size="14.00">N:M</text>
</g>
<!-- TEACH -->
<g id="node17" class="node">
<title>TEACH</title>
<polygon fill="lightgrey" stroke="black" points="189.7,-342.76 130.89,-324.76 189.7,-306.76 248.51,-324.76 189.7,-342.76"/>
<text text-anchor="middle" x="189.7" y="-319.33" font-family="Times New Roman,serif" font-size="14.00">TEACH</text>
</g>
<!-- TEACH&#45;&#45;COURSES -->
<g id="edge13" class="edge">
<title>TEACH&#45;&#45;COURSES</title>
<path fill="none" stroke="black" d="M196.44,-341.08C201.95,-354.43 209.74,-373.3 215.46,-387.15"/>
<text text-anchor="middle" x="196.2" y="-366.56" font-family="Times New Roman,serif" font-size="14.00">N:1</text>
</g>
<!-- TEACH&#45;&#45;PROFESSORS -->
<g id="edge14" class="edge">
<title>TEACH&#45;&#45;PROFESSORS</title>
<path fill="none" stroke="black" d="M186.4,-307.41C183.73,-293.43 180,-273.81 177.28,-259.53"/>
<text text-anchor="middle" x="172.09" y="-285.92" font-family="Times New Roman,serif" font-size="14.00">1:N</text>
</g>
<!-- WORK FOR -->
<g id="node18" class="node">
<title>WORK FOR</title>
<polygon fill="lightgrey" stroke="black" points="251.41,-223.95 165.08,-205.95 251.41,-187.95 337.74,-205.95 251.41,-223.95"/>
<text text-anchor="middle" x="251.41" y="-200.52" font-family="Times New Roman,serif" font-size="14.00">WORK FOR</text>
</g>
<!-- WORK FOR&#45;&#45;PROFESSORS -->
<g id="edge15" class="edge">
<title>WORK FOR&#45;&#45;PROFESSORS</title>
<path fill="none" stroke="black" d="M223.81,-218.42C220.76,-219.8 217.61,-221.23 214.44,-222.66"/>
<text text-anchor="middle" x="228.88" y="-222.99" font-family="Times New Roman,serif" font-size="14.00">1:N</text>
</g>
<!-- WORK FOR&#45;&#45;ASSISTANTS -->
<g id="edge16" class="edge">
<title>WORK FOR&#45;&#45;ASSISTANTS</title>
<path fill="none" stroke="black" d="M250.61,-187.81C250.1,-176.2 249.44,-161.18 248.93,-149.5"/>
<text text-anchor="middle" x="259.52" y="-171.1" font-family="Times New Roman,serif" font-size="14.00">N:1</text>
</g>
<!-- PREREQUISITE -->
<g id="node19" class="node">
<title>PREREQUISITE</title>
<polygon fill="lightgrey" stroke="black" points="292.13,-478.03 183.92,-460.03 292.13,-442.03 400.33,-460.03 292.13,-478.03"/>
<text text-anchor="middle" x="292.13" y="-454.61" font-family="Times New Roman,serif" font-size="14.00">PREREQUISITE</text>
</g>
<!-- PREREQUISITE&#45;&#45;COURSES -->
<g id="edge17" class="edge">
<title>PREREQUISITE&#45;&#45;COURSES</title>
<path fill="none" stroke="black" d="M280.65,-443.73C274.12,-437.46 265.64,-430.32 257.18,-423.88"/>
<text text-anchor="middle" x="273.79" y="-420.51" font-family="Times New Roman,serif" font-size="14.00">N:1</text>
</g>
<!-- PREREQUISITE&#45;&#45;COURSES -->
<g id="edge18" class="edge">
<title>PREREQUISITE&#45;&#45;COURSES</title>
<path fill="none" stroke="black" d="M264.34,-446.3C254.79,-439.43 244.55,-431.12 236.61,-423.73"/>
<text text-anchor="middle" x="240.72" y="-421.71" font-family="Times New Roman,serif" font-size="14.00">1:N</text>
</g>
<!-- EMPLOYEE -->
<g id="node20" class="node">
<title>EMPLOYEE</title>
<polygon fill="lightgrey" stroke="black" points="166.81,-174.34 82.6,-156.34 166.81,-138.34 251.02,-156.34 166.81,-174.34"/>
<text text-anchor="middle" x="166.81" y="-150.91" font-family="Times New Roman,serif" font-size="14.00">EMPLOYEE</text>
</g>
<!-- EMPLOYEE&#45;&#45;PROFESSORS -->
<g id="edge19" class="edge">
<title>EMPLOYEE&#45;&#45;PROFESSORS</title>
<path fill="none" stroke="black" d="M168.28,-174.3C169.46,-188.58 171.09,-208.47 172.26,-222.82"/>
<text text-anchor="middle" x="162.02" y="-185.26" font-family="Times New Roman,serif" font-size="14.00">1:1</text>
</g>
<!-- EMPLOYEE&#45;&#45;ASSISTANTS -->
<g id="edge20" class="edge">
<title>EMPLOYEE&#45;&#45;ASSISTANTS</title>
<path fill="none" stroke="black" d="M201.76,-145.45C201.85,-145.42 201.94,-145.39 202.02,-145.36"/>
<text text-anchor="middle" x="193.64" y="-132.11" font-family="Times New Roman,serif" font-size="14.00">1:1</text>
</g>
<!-- EMPLOYEE&#45;&#45;UNIVERSITY EMPLOYEES -->
<g id="edge21" class="edge">
<title>EMPLOYEE&#45;&#45;UNIVERSITY EMPLOYEES</title>
<path fill="none" stroke="black" d="M162.85,-138.87C157.79,-127.8 149.56,-113.57 141.84,-102.35"/>
<text text-anchor="middle" x="144.1" y="-107.31" font-family="Times New Roman,serif" font-size="14.00">1:1</text>
</g>
<!-- EMPLOYEE&#45;&#45;UNIVERSITY EMPLOYEES -->
<g id="edge22" class="edge">
<title>EMPLOYEE&#45;&#45;UNIVERSITY EMPLOYEES</title>
<path fill="none" stroke="black" d="M151.07,-141.51C142.92,-130.18 133.7,-114.56 128.06,-102.44"/>
<text text-anchor="middle" x="131.32" y="-124.43" font-family="Times New Roman,serif" font-size="14.00">1:1</text>
</g>
</g>
</svg>
