<?xml version="1.0" encoding="UTF-8" standalone="no"?>
<!DOCTYPE svg PUBLIC "-//W3C//DTD SVG 1.1//EN"
 "http://www.w3.org/Graphics/SVG/1.1/DTD/svg11.dtd">
<!-- Generated by graphviz version 8.1.0 (20230707.0739)
 -->
<!-- Title: ConceptualModel Pages: 1 -->
<svg width="334pt" height="460pt"
 viewBox="0.00 0.00 333.88 459.54" xmlns="http://www.w3.org/2000/svg" xmlns:xlink="http://www.w3.org/1999/xlink">
<g id="graph0" class="graph" transform="scale(1 1) rotate(0) translate(4 455.54)">
<title>ConceptualModel</title>
<polygon fill="white" stroke="none" points="-4,4 -4,-455.54 329.88,-455.54 329.88,4 -4,4"/>
<!-- STUDENT -->
<g id="node1" class="node">
<title>STUDENT</title>
<polygon fill="none" stroke="black" points="142.64,-382.64 62.89,-382.64 62.89,-346.64 142.64,-346.64 142.64,-382.64"/>
<text text-anchor="middle" x="102.77" y="-359.22" font-family="Times New Roman,serif" font-size="14.00">STUDENT</text>
</g>
<!-- STUDENT_ID -->
<g id="node2" class="node">
<title>STUDENT_ID</title>
<ellipse fill="none" stroke="black" cx="21.39" cy="-347.59" rx="21.39" ry="13.61"/>
<text text-anchor="start" x="14.26" y="-344.72" font-family="Times New Roman,serif" font-size="10.00"> </text>
<text text-anchor="start" x="16.51" y="-344.72" font-family="Times New Roman,serif" text-decoration="underline" font-size="10.00">ID</text>
<text text-anchor="start" x="26.26" y="-344.72" font-family="Times New Roman,serif" font-size="10.00"> </text>
</g>
<!-- STUDENT&#45;&#45;STUDENT_ID -->
<g id="edge1" class="edge">
<title>STUDENT&#45;&#45;STUDENT_ID</title>
<path fill="none" stroke="black" d="M62.55,-356.22C55.51,-354.74 48.44,-353.26 42.2,-351.95"/>
</g>
<!-- STUDENT_Name -->
<g id="node3" class="node">
<title>STUDENT_Name</title>
<ellipse fill="none" stroke="black" cx="144.14" cy="-437.92" rx="30.41" ry="13.61"/>
<text text-anchor="start" x="130.64" y="-434.05" font-family="Times New Roman,serif" font-size="10.00"> Name </text>
</g>
<!-- STUDENT&#45;&#45;STUDENT_Name -->
<g id="edge2" class="edge">
<title>STUDENT&#45;&#45;STUDENT_Name</title>
<path fill="none" stroke="black" d="M113.21,-383.14C120.49,-396.03 130.03,-412.92 136.58,-424.53"/>
</g>
<!-- STUDENT_DateOfBirth -->
<g id="node4" class="node">
<title>STUDENT_DateOfBirth</title>
<ellipse fill="none" stroke="black" cx="57.07" cy="-428.49" rx="48.44" ry="13.61"/>
<text text-anchor="start" x="30.82" y="-424.62" font-family="Times New Roman,serif" font-size="10.00"> DateOfBirth </text>
</g>
<!-- STUDENT&#45;&#45;STUDENT_DateOfBirth -->
<g id="edge3" class="edge">
<title>STUDENT&#45;&#45;STUDENT_DateOfBirth</title>
<path fill="none" stroke="black" d="M89.55,-383.11C82.27,-393.28 73.4,-405.67 66.77,-414.93"/>
</g>
<!-- SUBJECT -->
<g id="node5" class="node">
<title>SUBJECT</title>
<polygon fill="none" stroke="black" points="250.12,-256.15 174.87,-256.15 174.87,-220.15 250.12,-220.15 250.12,-256.15"/>
<text text-anchor="middle" x="212.49" y="-232.72" font-family="Times New Roman,serif" font-size="14.00">SUBJECT</text>
</g>
<!-- SUBJECT_Code -->
<g id="node6" class="node">
<title>SUBJECT_Code</title>
<ellipse fill="none" stroke="black" cx="261.17" cy="-301.7" rx="29.34" ry="13.61"/>
<text text-anchor="start" x="248.42" y="-298.82" font-family="Times New Roman,serif" font-size="10.00"> </text>
<text text-anchor="start" x="250.67" y="-298.82" font-family="Times New Roman,serif" text-decoration="underline" font-size="10.00">Code</text>
<text text-anchor="start" x="271.67" y="-298.82" font-family="Times New Roman,serif" font-size="10.00"> </text>
</g>
<!-- SUBJECT&#45;&#45;SUBJECT_Code -->
<g id="edge4" class="edge">
<title>SUBJECT&#45;&#45;SUBJECT_Code</title>
<path fill="none" stroke="black" d="M226.57,-256.53C234.43,-266.79 244.04,-279.34 251.14,-288.6"/>
</g>
<!-- SUBJECT_Title -->
<g id="node7" class="node">
<title>SUBJECT_Title</title>
<ellipse fill="none" stroke="black" cx="298.66" cy="-250.33" rx="27.22" ry="13.61"/>
<text text-anchor="start" x="287.41" y="-246.45" font-family="Times New Roman,serif" font-size="10.00"> Title </text>
</g>
<!-- SUBJECT&#45;&#45;SUBJECT_Title -->
<g id="edge5" class="edge">
<title>SUBJECT&#45;&#45;SUBJECT_Title</title>
<path fill="none" stroke="black" d="M250.53,-243.53C257.84,-244.56 265.34,-245.62 272.18,-246.58"/>
</g>
<!-- SUBJECT_Credits -->
<g id="node8" class="node">
<title>SUBJECT_Credits</title>
<ellipse fill="none" stroke="black" cx="274.28" cy="-190.05" rx="34.65" ry="13.61"/>
<text text-anchor="start" x="257.78" y="-186.18" font-family="Times New Roman,serif" font-size="10.00"> Credits </text>
</g>
<!-- SUBJECT&#45;&#45;SUBJECT_Credits -->
<g id="edge6" class="edge">
<title>SUBJECT&#45;&#45;SUBJECT_Credits</title>
<path fill="none" stroke="black" d="M236.2,-219.69C243.55,-213.97 251.48,-207.8 258.19,-202.58"/>
</g>
<!-- PROFESSOR -->
<g id="node9" class="node">
<title>PROFESSOR</title>
<polygon fill="none" stroke="black" points="209.4,-98.32 111.65,-98.32 111.65,-62.32 209.4,-62.32 209.4,-98.32"/>
<text text-anchor="middle" x="160.53" y="-74.9" font-family="Times New Roman,serif" font-size="14.00">PROFESSOR</text>
</g>
<!-- PROFESSOR_ID -->
<g id="node10" class="node">
<title>PROFESSOR_ID</title>
<ellipse fill="none" stroke="black" cx="93.92" cy="-36.87" rx="21.39" ry="13.61"/>
<text text-anchor="start" x="86.8" y="-33.99" font-family="Times New Roman,serif" font-size="10.00"> </text>
<text text-anchor="start" x="89.05" y="-33.99" font-family="Times New Roman,serif" text-decoration="underline" font-size="10.00">ID</text>
<text text-anchor="start" x="98.8" y="-33.99" font-family="Times New Roman,serif" font-size="10.00"> </text>
</g>
<!-- PROFESSOR&#45;&#45;PROFESSOR_ID -->
<g id="edge7" class="edge">
<title>PROFESSOR&#45;&#45;PROFESSOR_ID</title>
<path fill="none" stroke="black" d="M132.28,-61.89C124.34,-56.71 116,-51.28 109.14,-46.8"/>
</g>
<!-- PROFESSOR_Name -->
<g id="node11" class="node">
<title>PROFESSOR_Name</title>
<ellipse fill="none" stroke="black" cx="205.97" cy="-13.61" rx="30.41" ry="13.61"/>
<text text-anchor="start" x="192.47" y="-9.74" font-family="Times New Roman,serif" font-size="10.00"> Name </text>
</g>
<!-- PROFESSOR&#45;&#45;PROFESSOR_Name -->
<g id="edge8" class="edge">
<title>PROFESSOR&#45;&#45;PROFESSOR_Name</title>
<path fill="none" stroke="black" d="M172.95,-62.09C180.52,-50.98 190.02,-37.03 196.89,-26.95"/>
</g>
<!-- ENROLLED -->
<g id="node12" class="node">
<title>ENROLLED</title>
<polygon fill="lightgrey" stroke="black" points="150.46,-314.81 66.95,-296.81 150.46,-278.81 233.96,-296.81 150.46,-314.81"/>
<text text-anchor="middle" x="150.46" y="-291.39" font-family="Times New Roman,serif" font-size="14.00">ENROLLED</text>
</g>
<!-- ENROLLED&#45;&#45;STUDENT -->
<g id="edge9" class="edge">
<title>ENROLLED&#45;&#45;STUDENT</title>
<path fill="none" stroke="black" d="M139.4,-312.54C132.24,-322.72 122.91,-336 115.45,-346.6"/>
<text text-anchor="middle" x="122.55" y="-332.02" font-family="Times New Roman,serif" font-size="14.00">N</text>
</g>
<!-- ENROLLED&#45;&#45;SUBJECT -->
<g id="edge10" class="edge">
<title>ENROLLED&#45;&#45;SUBJECT</title>
<path fill="none" stroke="black" d="M166.11,-282.01C174.29,-274.27 184.39,-264.72 193.06,-256.52"/>
<text text-anchor="middle" x="174.71" y="-255.96" font-family="Times New Roman,serif" font-size="14.00">N</text>
</g>
<!-- TEACHES -->
<g id="node13" class="node">
<title>TEACHES</title>
<polygon fill="lightgrey" stroke="black" points="175.85,-178.43 101.52,-160.43 175.85,-142.43 250.19,-160.43 175.85,-178.43"/>
<text text-anchor="middle" x="175.85" y="-155.01" font-family="Times New Roman,serif" font-size="14.00">TEACHES</text>
</g>
<!-- TEACHES&#45;&#45;SUBJECT -->
<g id="edge11" class="edge">
<title>TEACHES&#45;&#45;SUBJECT</title>
<path fill="none" stroke="black" d="M183.62,-176.91C189.55,-189.48 197.7,-206.78 203.83,-219.79"/>
<text text-anchor="middle" x="188.85" y="-200.8" font-family="Times New Roman,serif" font-size="14.00">N</text>
</g>
<!-- TEACHES&#45;&#45;PROFESSOR -->
<g id="edge12" class="edge">
<title>TEACHES&#45;&#45;PROFESSOR</title>
<path fill="none" stroke="black" d="M172.53,-143.05C170.03,-129.98 166.61,-112.11 164.06,-98.79"/>
<text text-anchor="middle" x="164.92" y="-123.37" font-family="Times New Roman,serif" font-size="14.00">1</text>
</g>
</g>
</svg>
