<?xml version="1.0" encoding="UTF-8" standalone="no"?>
<!DOCTYPE svg PUBLIC "-//W3C//DTD SVG 1.1//EN"
 "http://www.w3.org/Graphics/SVG/1.1/DTD/svg11.dtd">
<!-- Generated by graphviz version 8.1.0 (20230707.0739)
 -->
<!-- Title: ConceptualModel Pages: 1 -->
<svg width="269pt" height="501pt"
 viewBox="0.00 0.00 268.83 500.76" xmlns="http://www.w3.org/2000/svg" xmlns:xlink="http://www.w3.org/1999/xlink">
<g id="graph0" class="graph" transform="scale(1 1) rotate(0) translate(4 496.76)">
<title>ConceptualModel</title>
<polygon fill="white" stroke="none" points="-4,4 -4,-496.76 264.83,-496.76 264.83,4 -4,4"/>
<!-- STUDENT -->
<g id="node1" class="node">
<title>STUDENT</title>
<polygon fill="none" stroke="black" points="165.32,-419.85 85.57,-419.85 85.57,-383.85 165.32,-383.85 165.32,-419.85"/>
<text text-anchor="middle" x="125.45" y="-396.43" font-family="Times New Roman,serif" font-size="14.00">STUDENT</text>
</g>
<!-- STUDENT_ID -->
<g id="node2" class="node">
<title>STUDENT_ID</title>
<ellipse fill="none" stroke="black" cx="44.82" cy="-425.69" rx="21.39" ry="13.61"/>
<text text-anchor="start" x="37.69" y="-422.82" font-family="Times New Roman,serif" font-size="10.00"> </text>
<text text-anchor="start" x="39.94" y="-422.82" font-family="Times New Roman,serif" text-decoration="underline" font-size="10.00">ID</text>
<text text-anchor="start" x="49.69" y="-422.82" font-family="Times New Roman,serif" font-size="10.00"> </text>
</g>
<!-- STUDENT&#45;&#45;STUDENT_ID -->
<g id="edge1" class="edge">
<title>STUDENT&#45;&#45;STUDENT_ID</title>
<path fill="none" stroke="black" d="M85.13,-413.77C77.89,-415.91 70.64,-418.05 64.34,-419.92"/>
</g>
<!-- STUDENT_Name -->
<g id="node3" class="node">
<title>STUDENT_Name</title>
<ellipse fill="none" stroke="black" cx="198.77" cy="-443.37" rx="30.41" ry="13.61"/>
<text text-anchor="start" x="185.27" y="-439.49" font-family="Times New Roman,serif" font-size="10.00"> Name </text>
</g>
<!-- STUDENT&#45;&#45;STUDENT_Name -->
<g id="edge2" class="edge">
<title>STUDENT&#45;&#45;STUDENT_Name</title>
<path fill="none" stroke="black" d="M157.82,-420.18C165.18,-424.35 172.78,-428.66 179.41,-432.41"/>
</g>
<!-- STUDENT_DateOfBirth -->
<g id="node4" class="node">
<title>STUDENT_DateOfBirth</title>
<ellipse fill="none" stroke="black" cx="116.66" cy="-479.15" rx="48.44" ry="13.61"/>
<text text-anchor="start" x="90.41" y="-475.27" font-family="Times New Roman,serif" font-size="10.00"> DateOfBirth </text>
</g>
<!-- STUDENT&#45;&#45;STUDENT_DateOfBirth -->
<g id="edge3" class="edge">
<title>STUDENT&#45;&#45;STUDENT_DateOfBirth</title>
<path fill="none" stroke="black" d="M123.36,-420.17C121.8,-433.92 119.69,-452.47 118.26,-465.07"/>
</g>
<!-- ENROLLED -->
<g id="node5" class="node">
<title>ENROLLED</title>
<polygon fill="lightgrey" stroke="black" points="136.37,-338.64 52.87,-320.64 136.37,-302.64 219.88,-320.64 136.37,-338.64"/>
<text text-anchor="middle" x="136.37" y="-315.21" font-family="Times New Roman,serif" font-size="14.00">ENROLLED</text>
</g>
<!-- STUDENT&#45;&#45;ENROLLED -->
<g id="edge4" class="edge">
<title>STUDENT&#45;&#45;ENROLLED</title>
<path fill="none" stroke="black" d="M127.93,-383.42C129.74,-369.94 132.19,-351.76 133.98,-338.44"/>
<text text-anchor="middle" x="123.05" y="-370.12" font-family="Times New Roman,serif" font-size="14.00">N</text>
</g>
<!-- SUBJECT -->
<g id="node6" class="node">
<title>SUBJECT</title>
<polygon fill="none" stroke="black" points="189.02,-255.4 113.77,-255.4 113.77,-219.4 189.02,-219.4 189.02,-255.4"/>
<text text-anchor="middle" x="151.4" y="-231.97" font-family="Times New Roman,serif" font-size="14.00">SUBJECT</text>
</g>
<!-- ENROLLED&#45;&#45;SUBJECT -->
<g id="edge11" class="edge">
<title>ENROLLED&#45;&#45;SUBJECT</title>
<path fill="none" stroke="black" d="M139.56,-302.99C142.06,-289.15 145.52,-269.94 148.06,-255.89"/>
<text text-anchor="middle" x="143.19" y="-258.34" font-family="Times New Roman,serif" font-size="14.00">N</text>
</g>
<!-- SUBJECT_Code -->
<g id="node7" class="node">
<title>SUBJECT_Code</title>
<ellipse fill="none" stroke="black" cx="231.48" cy="-258.45" rx="29.34" ry="13.61"/>
<text text-anchor="start" x="218.73" y="-255.58" font-family="Times New Roman,serif" font-size="10.00"> </text>
<text text-anchor="start" x="220.98" y="-255.58" font-family="Times New Roman,serif" text-decoration="underline" font-size="10.00">Code</text>
<text text-anchor="start" x="241.98" y="-255.58" font-family="Times New Roman,serif" font-size="10.00"> </text>
</g>
<!-- SUBJECT&#45;&#45;SUBJECT_Code -->
<g id="edge5" class="edge">
<title>SUBJECT&#45;&#45;SUBJECT_Code</title>
<path fill="none" stroke="black" d="M189.09,-247.31C194.61,-248.76 200.19,-250.22 205.4,-251.59"/>
</g>
<!-- SUBJECT_Title -->
<g id="node8" class="node">
<title>SUBJECT_Title</title>
<ellipse fill="none" stroke="black" cx="222.9" cy="-197.32" rx="27.22" ry="13.61"/>
<text text-anchor="start" x="211.65" y="-193.45" font-family="Times New Roman,serif" font-size="10.00"> Title </text>
</g>
<!-- SUBJECT&#45;&#45;SUBJECT_Title -->
<g id="edge6" class="edge">
<title>SUBJECT&#45;&#45;SUBJECT_Title</title>
<path fill="none" stroke="black" d="M184.22,-219C191.12,-215.13 198.17,-211.18 204.33,-207.73"/>
</g>
<!-- SUBJECT_Credits -->
<g id="node9" class="node">
<title>SUBJECT_Credits</title>
<ellipse fill="none" stroke="black" cx="70.65" cy="-239.07" rx="34.65" ry="13.61"/>
<text text-anchor="start" x="54.15" y="-235.2" font-family="Times New Roman,serif" font-size="10.00"> Credits </text>
</g>
<!-- SUBJECT&#45;&#45;SUBJECT_Credits -->
<g id="edge7" class="edge">
<title>SUBJECT&#45;&#45;SUBJECT_Credits</title>
<path fill="none" stroke="black" d="M113.39,-238.19C110.77,-238.24 108.14,-238.3 105.54,-238.35"/>
</g>
<!-- PROFESSOR -->
<g id="node10" class="node">
<title>PROFESSOR</title>
<polygon fill="none" stroke="black" points="150.2,-98.48 52.45,-98.48 52.45,-62.48 150.2,-62.48 150.2,-98.48"/>
<text text-anchor="middle" x="101.32" y="-75.05" font-family="Times New Roman,serif" font-size="14.00">PROFESSOR</text>
</g>
<!-- PROFESSOR_ID -->
<g id="node11" class="node">
<title>PROFESSOR_ID</title>
<ellipse fill="none" stroke="black" cx="145.57" cy="-13.61" rx="21.39" ry="13.61"/>
<text text-anchor="start" x="138.45" y="-10.74" font-family="Times New Roman,serif" font-size="10.00"> </text>
<text text-anchor="start" x="140.7" y="-10.74" font-family="Times New Roman,serif" text-decoration="underline" font-size="10.00">ID</text>
<text text-anchor="start" x="150.45" y="-10.74" font-family="Times New Roman,serif" font-size="10.00"> </text>
</g>
<!-- PROFESSOR&#45;&#45;PROFESSOR_ID -->
<g id="edge8" class="edge">
<title>PROFESSOR&#45;&#45;PROFESSOR_ID</title>
<path fill="none" stroke="black" d="M113.41,-62.21C120.89,-50.92 130.3,-36.7 137,-26.56"/>
</g>
<!-- PROFESSOR_Name -->
<g id="node12" class="node">
<title>PROFESSOR_Name</title>
<ellipse fill="none" stroke="black" cx="30.41" cy="-43.48" rx="30.41" ry="13.61"/>
<text text-anchor="start" x="16.91" y="-39.6" font-family="Times New Roman,serif" font-size="10.00"> Name </text>
</g>
<!-- PROFESSOR&#45;&#45;PROFESSOR_Name -->
<g id="edge9" class="edge">
<title>PROFESSOR&#45;&#45;PROFESSOR_Name</title>
<path fill="none" stroke="black" d="M66.28,-62.2C60.84,-59.36 55.38,-56.51 50.42,-53.92"/>
</g>
<!-- TEACHES -->
<g id="node13" class="node">
<title>TEACHES</title>
<polygon fill="lightgrey" stroke="black" points="123.61,-175.69 49.28,-157.69 123.61,-139.69 197.95,-157.69 123.61,-175.69"/>
<text text-anchor="middle" x="123.61" y="-152.26" font-family="Times New Roman,serif" font-size="14.00">TEACHES</text>
</g>
<!-- PROFESSOR&#45;&#45;TEACHES -->
<g id="edge10" class="edge">
<title>PROFESSOR&#45;&#45;TEACHES</title>
<path fill="none" stroke="black" d="M106.6,-98.78C110.26,-111.44 115.09,-128.18 118.67,-140.58"/>
<text text-anchor="middle" x="103.23" y="-101.23" font-family="Times New Roman,serif" font-size="14.00">1</text>
</g>
<!-- TEACHES&#45;&#45;SUBJECT -->
<g id="edge12" class="edge">
<title>TEACHES&#45;&#45;SUBJECT</title>
<path fill="none" stroke="black" d="M129.51,-174.59C134.06,-187.66 140.36,-205.73 145.03,-219.13"/>
<text text-anchor="middle" x="140.16" y="-205.83" font-family="Times New Roman,serif" font-size="14.00">N</text>
</g>
</g>
</svg>
